<svg width="183" height="30" viewBox="0 0 183 30" fill="none" xmlns="http://www.w3.org/2000/svg">
<g id="Group 5">
<path id="Polygon 1" d="M25.2949 30L15.6321 23.2563L5.90645 29.9092L9.30672 18.5982L0 11.3678L11.7659 11.1215L15.7391 0L19.6085 11.1584L31.3714 11.5154L21.9977 18.6581L25.2949 30Z" fill="#FFD740"/>
<path id="Polygon 1 copy" d="M63.0577 30L53.395 23.2563L43.6693 29.9092L47.0695 18.5982L37.7628 11.3678L49.5327 11.1234L53.506 0.00201416L57.3753 11.1604L69.1381 11.5174L59.7645 18.6601L63.0577 30Z" fill="#FFD740"/>
<path id="Polygon 1 copy 2" d="M100.82 30L91.1578 23.2563L81.4331 29.9092L84.8333 18.5982L75.5256 11.3678L87.2915 11.1215L91.2648 0L95.1341 11.1584L106.897 11.5154L97.5232 18.6581L100.82 30Z" fill="#FFD740"/>
<path id="Polygon 1 copy 3" d="M138.583 30L128.921 23.2563L119.195 29.9092L122.595 18.5982L113.288 11.3678L125.054 11.1215L129.028 0L132.897 11.1584L144.66 11.5154L135.286 18.6581L138.583 30Z" fill="#FFD740"/>
<path id="Polygon 1 copy 4" d="M176.342 30L166.679 23.2563L156.954 29.9092L160.354 18.5982L151.047 11.3678L162.813 11.1215L166.786 0L170.656 11.1584L182.419 11.5154L173.045 18.6581L176.342 30Z" fill="#FFD740"/>
</g>
</svg>
